<?xml version="1.0" encoding="UTF-8"?>
<svg version="1.1" xmlns="http://www.w3.org/2000/svg" viewBox="0 200 2000 500">
<path d="M0 0 C1.00168213 0.2266333 2.00336426 0.4532666 3.03540039 0.68676758 C4.97391215 1.13151932 6.90960262 1.58883808 8.84155273 2.0612793 C21.8072765 5.07091208 33.22520554 3.16682566 45.97265625 0.25 C48.17321264 -0.24210551 50.37452494 -0.73061367 52.57633972 -1.21705627 C54.56114938 -1.65730115 56.54395252 -2.10656433 58.52661133 -2.55639648 C70.89755321 -5.1306629 83.85586125 -6.47961689 94.97265625 0.4375 C99.65929146 5.25803907 101.91715596 10.40699606 102.41015625 17.0625 C102.06991048 21.99606362 100.54292045 25.28417425 97.05859375 28.8203125 C91.36393305 33.31609726 85.55279923 37.54521882 79.59765625 41.6875 C57.050796 57.40250323 48.94157262 74.57716953 41.44384766 100.30761719 C35.88104542 119.08998723 35.88104542 119.08998723 31.00537109 121.95263672 C30.09198975 122.31639404 30.09198975 122.31639404 29.16015625 122.6875 C29.52158592 126.70467654 29.89453963 130.72061928 30.27709961 134.73583984 C30.46718026 136.75434919 30.64875593 138.77365379 30.83007812 140.79296875 C31.96978384 152.65759746 34.01024704 164.25026326 37.84765625 175.5625 C38.10184326 176.31370117 38.35603027 177.06490234 38.61791992 177.83886719 C52.30513936 216.85625059 80.84066412 238.15806555 114.515625 259.4453125 C115.49499023 260.06684204 115.49499023 260.06684204 116.49414062 260.70092773 C118.22746377 261.79886648 119.96513812 262.8899275 121.703125 263.98046875 C124.16015625 265.6875 124.16015625 265.6875 125.16015625 267.6875 C117.78870893 267.23166845 111.08004102 265.80988162 104.03515625 263.625 C102.53009521 263.15864136 102.53009521 263.15864136 100.99462891 262.68286133 C69.02376751 252.4238603 46.41726622 229.1162246 31.16210938 199.72509766 C27.86100258 193.01188194 24.90099431 185.96987458 23.16015625 178.6875 C22.80751709 179.59193848 22.80751709 179.59193848 22.44775391 180.51464844 C14.49335055 200.68654859 5.23283145 217.9487655 -9.83984375 233.6875 C-10.72027344 234.65429688 -11.60070312 235.62109375 -12.5078125 236.6171875 C-26.19327568 251.32970674 -43.11986267 259.04683418 -62.21484375 264.5 C-62.93978027 264.70729736 -63.6647168 264.91459473 -64.41162109 265.12817383 C-69.5417689 266.51639346 -74.54738094 267.20209661 -79.83984375 267.6875 C-76.17784626 263.52210123 -71.70404547 260.93424014 -67.02734375 258.0625 C-65.31034025 256.99226015 -63.59420437 255.92062722 -61.87890625 254.84765625 C-60.60128418 254.04932373 -60.60128418 254.04932373 -59.29785156 253.23486328 C-34.05823467 237.3460381 -13.45106014 220.62732423 0.16015625 193.6875 C0.47968262 193.06182129 0.79920898 192.43614258 1.12841797 191.79150391 C9.51289997 175.0444544 13.92048343 156.32015813 15.16015625 137.6875 C15.26585937 136.40875 15.3715625 135.13 15.48046875 133.8125 C15.95758897 126.30140036 15.95758897 126.30140036 12.53515625 119.9375 C11.98730469 119.33421875 11.43945312 118.7309375 10.875 118.109375 C6.71934059 112.24033438 5.21862387 104.50830638 3.16015625 97.6875 C-2.88242537 77.83708934 -9.06721306 59.35612447 -26.46484375 46.75 C-27.51381836 45.97414551 -27.51381836 45.97414551 -28.58398438 45.18261719 C-32.75205391 42.12412964 -36.99613272 39.23935941 -41.33984375 36.4375 C-47.91857436 32.12636999 -54.43793286 27.46969129 -56.83984375 19.6875 C-57.17065102 13.5455116 -55.43527567 7.6624481 -51.83984375 2.6875 C-38.61206584 -10.24486847 -16.0065299 -3.64486989 0 0 Z " fill="currentColor" transform="translate(547.83984375,429.3125)"/>
<path d="M0 0 C25.28558362 -0.6462769 47.51049305 6.42986115 66.66796875 23.03125 C85.12917489 40.62750944 93.99450299 64.9548829 94.94140625 90.09765625 C95.03706079 99.42397388 95.03706079 99.42397388 93.79296875 103.15625 C42.64296875 103.15625 -8.50703125 103.15625 -61.20703125 103.15625 C-57.47216034 118.09573365 -54.43145258 129.24911105 -45.20703125 141.15625 C-44.27890625 142.39761719 -44.27890625 142.39761719 -43.33203125 143.6640625 C-32.53323637 156.32882561 -15.35112434 163.00243357 0.79296875 165.15625 C22.03032234 166.36453786 41.36290097 163.25553407 58.79296875 150.15625 C61.01007934 148.06394365 63.10326664 145.93055723 65.13671875 143.66015625 C66.79296875 142.15625 66.79296875 142.15625 69.79296875 142.15625 C71.9140625 144.421875 71.9140625 144.421875 74.23046875 147.40625 C77.45522254 151.54920909 77.45522254 151.54920909 81.140625 155.265625 C82.79296875 157.15625 82.79296875 157.15625 82.7578125 159.16796875 C76.63319366 171.78914684 58.85869862 179.72999998 46.46484375 184.4140625 C19.51608719 193.20170051 -12.68025435 191.84880944 -38.20703125 179.15625 C-59.27842329 167.7903651 -75.7688872 149.33087923 -82.78125 126.2265625 C-89.57595654 101.99289019 -89.17149651 76.48280621 -79.20703125 53.15625 C-78.57861328 51.65384766 -78.57861328 51.65384766 -77.9375 50.12109375 C-68.68074127 29.87360131 -51.46721952 15.0219392 -31.2265625 6.25 C-21.11962998 2.58901539 -10.71632448 0.52211081 0 0 Z M-45.20703125 44.15625 C-54.44666721 55.21324083 -60.20703125 68.72313729 -60.20703125 83.15625 C-17.63703125 83.15625 24.93296875 83.15625 68.79296875 83.15625 C67.93856976 73.2261992 67.93856976 73.2261992 65.16796875 64.09375 C64.90363037 63.41183594 64.63929199 62.72992188 64.36694336 62.02734375 C61.96838246 56.10767022 58.84045455 51.10416766 54.79296875 46.15625 C54.24898437 45.45113281 53.705 44.74601562 53.14453125 44.01953125 C44.05862678 32.82211378 30.0088308 25.29051618 15.79296875 23.15625 C-8.22592365 21.33826115 -28.49184522 26.17250074 -45.20703125 44.15625 Z " fill="currentColor" transform="translate(756.20703125,435.84375)"/>
<path d="M0 0 C18.00963521 16.00280615 26.80246699 38.58864056 29.21459961 62.10693359 C29.21459961 68.37693359 29.21459961 74.64693359 29.21459961 81.10693359 C-21.93540039 81.10693359 -73.08540039 81.10693359 -125.78540039 81.10693359 C-123.23789396 95.41442492 -123.23789396 95.41442492 -117.78540039 108.10693359 C-117.35485352 108.94611328 -116.92430664 109.78529297 -116.48071289 110.64990234 C-107.74105361 126.57385781 -92.60901038 135.76635492 -75.68774414 141.07958984 C-53.85040526 146.6755706 -31.87076337 143.26043239 -12.46801758 132.15917969 C-9.38047246 130.22834401 -6.73046181 127.93067242 -4.16821289 125.35693359 C-2.78540039 124.10693359 -2.78540039 124.10693359 -0.78540039 124.10693359 C-0.12540039 122.78693359 0.53459961 121.46693359 1.21459961 120.10693359 C4.35707536 120.40758048 5.25918625 121.15437935 7.46850586 123.50537109 C8.61125977 124.97876953 8.61125977 124.97876953 9.77709961 126.48193359 C12.68987469 130.3078924 12.68987469 130.3078924 16.05444336 133.70849609 C17.21459961 135.10693359 17.21459961 135.10693359 17.13256836 137.03271484 C12.12668772 148.34387492 -3.38969546 156.03915006 -14.41040039 160.48193359 C-40.29572133 170.44708038 -71.80531751 170.83705943 -97.41040039 159.73193359 C-120.45927473 149.07899756 -137.76133909 132.08651054 -146.91040039 108.16552734 C-155.61343059 83.11231908 -155.37492479 53.24597007 -143.92602539 29.02490234 C-140.30535429 21.80045423 -136.04864324 15.24947716 -130.78540039 9.10693359 C-130.3174707 8.50751953 -129.84954102 7.90810547 -129.36743164 7.29052734 C-117.14087681 -8.01835223 -96.86420888 -17.76777587 -77.78540039 -20.89306641 C-76.78573242 -21.05935547 -76.78573242 -21.05935547 -75.76586914 -21.22900391 C-48.14451813 -25.02117455 -21.23584707 -18.02774456 0 0 Z M-110.47290039 21.85693359 C-120.33924616 33.7710115 -124.3993492 45.86037055 -125.78540039 61.10693359 C-83.21540039 61.10693359 -40.64540039 61.10693359 3.21459961 61.10693359 C3.21459961 55.52475922 2.80904257 51.56421312 1.15209961 46.41943359 C0.92804443 45.72245361 0.70398926 45.02547363 0.47314453 44.30737305 C-5.25817431 27.33901305 -16.86752418 14.16969354 -32.78540039 6.10693359 C-59.74012976 -5.11643123 -90.42063668 0.37873114 -110.47290039 21.85693359 Z " fill="currentColor" transform="translate(1409.785400390625,457.89306640625)"/>
<path d="M0 0 C0.94939453 0.70576172 0.94939453 0.70576172 1.91796875 1.42578125 C15.44490559 12.02636089 21.98495855 30.01790646 24.54051208 46.4822998 C25.19777536 51.95492507 25.13162677 57.41918248 25.11352539 62.92382812 C25.11367142 64.0954248 25.11381744 65.26702148 25.1139679 66.47412109 C25.11327413 70.32651657 25.10550689 74.17886302 25.09765625 78.03125 C25.09579016 80.7102466 25.09431793 83.38924053 25.09336853 86.0682373 C25.09026921 92.38618782 25.08207479 98.70412088 25.07201904 105.02206373 C25.06081432 112.21920783 25.0553365 119.4163528 25.05032361 126.61350346 C25.03989092 141.40901242 25.02156294 156.20450269 25 171 C16.42 171 7.84 171 -1 171 C-1.01981934 167.77661865 -1.03963867 164.5532373 -1.06005859 161.23217773 C-1.12721896 150.53527638 -1.20485359 139.83846904 -1.28752708 129.1416769 C-1.3372932 122.66161136 -1.38362379 116.18156058 -1.421875 109.70141602 C-1.45897791 103.43786248 -1.50540306 97.17443876 -1.55806351 90.91099739 C-1.57647546 88.5314571 -1.59163108 86.15188913 -1.60334396 83.77230644 C-1.31952161 51.06605811 -1.31952161 51.06605811 -16.03515625 22.77734375 C-29.33538037 10.22774956 -44.90404328 8.30122883 -62.4921875 8.72265625 C-78.15162726 9.36035902 -92.21119156 15.14112508 -103.52734375 26.140625 C-115.23878717 39.68371597 -119.1029564 56.1947736 -119.20532227 73.70874023 C-119.22017166 75.29035194 -119.22017166 75.29035194 -119.23532104 76.90391541 C-119.26678508 80.37211906 -119.29163358 83.84033639 -119.31640625 87.30859375 C-119.33698882 89.71997931 -119.35798563 92.13136137 -119.37937927 94.54273987 C-119.43446534 100.87691402 -119.48393384 107.21112001 -119.53222656 113.54534912 C-119.58254009 120.01398539 -119.63817466 126.48257566 -119.69335938 132.95117188 C-119.8007762 145.63407668 -119.90176558 158.31702075 -120 171 C-128.91 171 -137.82 171 -147 171 C-147 109.95 -147 48.9 -147 -14 C-138.42 -14 -129.84 -14 -121 -14 C-120.505 0.355 -120.505 0.355 -120 15 C-117.69 12.03 -115.38 9.06 -113 6 C-85.00053691 -22.04612886 -30.76624503 -24.57924877 0 0 Z " fill="currentColor" transform="translate(1185,452)"/>
<path d="M0 0 C-2.86645996 29.21212564 -24.05294653 56.73921111 -45.85791016 75.10424805 C-52.35851764 80.32647327 -59.59368055 84.22579884 -67 88 C-67.94488281 88.49242187 -68.88976562 88.98484375 -69.86328125 89.4921875 C-87.0934395 97.91117226 -107.00493063 101.3373813 -126 102 C-127.17820312 102.05285156 -128.35640625 102.10570312 -129.5703125 102.16015625 C-157.42699924 102.852061 -184.33061817 94.17252924 -207.99707031 79.86450195 C-210.19221539 78.68740544 -210.19221539 78.68740544 -213.5 79.75 C-215.24432877 80.73571254 -215.24432877 80.73571254 -217 82 C-217.69867187 82.44730469 -218.39734375 82.89460938 -219.1171875 83.35546875 C-227.90100486 89.51021967 -234.07724209 98.58255008 -239 108 C-242.60635973 98.66167779 -234.9698624 83.53272862 -231.27124023 74.9621582 C-215.01403302 38.80829155 -184.79099612 13.35759612 -148.0625 -0.625 C-130.03041969 -7.19937035 -111.04091582 -10.90313524 -92 -13 C-91.15864502 -13.09498779 -90.31729004 -13.18997559 -89.45043945 -13.2878418 C-60.48239803 -16.26428226 -25.58954005 -15.87840165 0 0 Z M-96 6 C-96.03963867 6.74870361 -96.07927734 7.49740723 -96.12011719 8.26879883 C-97.15108092 26.86459362 -98.85911117 44.36324399 -105 62 C-118.40394818 48.76920492 -123.47044029 30.1728895 -126 12 C-142.55338256 15.64478148 -157.89221431 22.7563916 -172 32 C-173.02609375 32.62003906 -174.0521875 33.24007812 -175.109375 33.87890625 C-180.34201019 37.07724817 -180.34201019 37.07724817 -183.125 42.3125 C-183.08375 43.529375 -183.0425 44.74625 -183 46 C-183.04382813 46.73992187 -183.08765625 47.47984375 -183.1328125 48.2421875 C-183.46521566 55.17833336 -182.0847357 61.41074609 -180 68 C-179.7215625 69.05960938 -179.7215625 69.05960938 -179.4375 70.140625 C-178.08270925 73.68155536 -176.43556039 74.7927255 -173.00390625 76.42578125 C-169.03708967 77.84879799 -165.08642537 78.98530123 -161 80 C-159.74058594 80.32097656 -158.48117187 80.64195312 -157.18359375 80.97265625 C-148.25764699 82.98703291 -139.37907731 83.27436841 -130.25 83.3125 C-129.13786133 83.31805908 -128.02572266 83.32361816 -126.87988281 83.3293457 C-95.88122817 83.06116746 -68.12030758 71.55312021 -46 50 C-43.54248133 47.42271921 -41.2501826 44.75847258 -39 42 C-38.49210938 41.44957031 -37.98421875 40.89914062 -37.4609375 40.33203125 C-33.92196811 36.17028233 -33.32151735 32.66486063 -33.5625 27.2578125 C-34.49602802 20.30636275 -35.85029986 12.29940029 -39 6 C-57.03634018 1.14636693 -77.75211664 3.76148638 -96 6 Z " fill="currentColor" transform="translate(923,241)"/>
<path d="M0 0 C21.58558374 19.30670032 41.72295068 46.40052386 44.609375 76.17626953 C44.67502593 77.63372011 44.72794806 79.09235524 44.734375 80.55126953 C42.02341868 77.23124373 39.53579794 73.8324893 37.109375 70.30126953 C32.15803036 63.46193553 26.09117777 56.05961002 17.734375 53.55126953 C12.97281362 52.85671439 10.29988612 54.70504648 6.296875 57.17626953 C-16.81892582 70.93850392 -42.55956217 76.53063466 -69.265625 75.55126953 C-70.57917969 75.52033203 -71.89273438 75.48939453 -73.24609375 75.45751953 C-111.51118285 73.92231034 -142.29076757 57.51336876 -168.16894531 29.88037109 C-180.33229937 16.36868062 -195.265625 -7.89132377 -195.265625 -26.44873047 C-138.78436617 -56.55471636 -47.56247355 -41.32545526 0 0 Z M-155.265625 -20.44873047 C-159.42151148 -11.32998925 -163.2515623 -0.47421255 -160.265625 9.55126953 C-158.56846134 12.49225715 -156.48781525 14.99230862 -154.265625 17.55126953 C-153.6689502 18.25477539 -153.07227539 18.95828125 -152.45751953 19.68310547 C-134.24600908 40.84876376 -107.23109411 54.39417694 -79.265625 56.55126953 C-62.24268206 57.31692912 -45.77671204 57.10493057 -29.265625 52.55126953 C-28.10417969 52.26251953 -26.94273437 51.97376953 -25.74609375 51.67626953 C-22.10087426 50.60611335 -19.27938326 49.75594778 -16.79296875 46.80126953 C-15.66982966 44.74016841 -14.93264681 42.79938007 -14.265625 40.55126953 C-14.05679688 39.90931641 -13.84796875 39.26736328 -13.6328125 38.60595703 C-12.12758148 33.36944911 -11.41417086 27.9896987 -11.265625 22.55126953 C-11.24242187 21.71208984 -11.21921875 20.87291016 -11.1953125 20.00830078 C-11.54181225 15.53845406 -12.47245911 13.28464292 -15.8046875 10.20361328 C-18.63165068 8.19860168 -21.46334784 6.36479751 -24.45117188 4.6171875 C-26.15764537 3.61470321 -27.83035215 2.55536228 -29.5 1.49267578 C-41.65851743 -5.96823264 -55.37256888 -11.25751804 -69.265625 -14.44873047 C-69.41257812 -13.26279297 -69.55953125 -12.07685547 -69.7109375 -10.85498047 C-71.79136163 4.64192494 -75.40825029 23.21150503 -87.98046875 33.84814453 C-88.73457031 34.41017578 -89.48867188 34.97220703 -90.265625 35.55126953 C-95.48190062 16.6970214 -97.67732139 -0.88883119 -98.265625 -20.44873047 C-117.62541089 -22.28716449 -135.98809352 -23.35463023 -155.265625 -20.44873047 Z " fill="currentColor" transform="translate(414.265625,259.44873046875)"/>
<path d="M0 0 C25.19235589 -2.84233909 25.19235589 -2.84233909 32.63378906 1.55712891 C36.94934515 5.60779913 39.85295219 10.51601274 42.6796875 15.67480469 C44.56014027 18.98646004 46.8576191 21.86180437 49.25 24.8125 C50.83359645 26.87479799 52.4169332 28.93729541 54 31 C55.66609253 33.16710847 57.33305199 35.33354953 59 37.5 C59.83334905 38.58332124 60.66668241 39.66665456 61.5 40.75 C61.9125 41.28625 62.325 41.8225 62.75 42.375 C69.83333333 51.58333333 76.91666667 60.79166667 84 70 C87.7004016 66.55329023 90.58144638 62.68219558 93.5625 58.625 C97.5152668 53.29817617 101.51036127 48.01544152 105.625 42.8125 C109.04979768 38.4798514 112.45063638 34.13193969 115.8125 29.75 C119.98025112 24.31787494 124.17206086 18.90494597 128.375 13.5 C128.97030518 12.73397461 129.56561035 11.96794922 130.17895508 11.17871094 C130.74638428 10.44942383 131.31381348 9.72013672 131.8984375 8.96875 C132.65133057 8.00098633 132.65133057 8.00098633 133.41943359 7.01367188 C133.94102051 6.34916016 134.46260742 5.68464844 135 5 C135.58507324 4.10321533 136.17014648 3.20643066 136.77294922 2.2824707 C139 0 139 0 142.11621094 -0.56762695 C143.31020508 -0.54144287 144.50419922 -0.51525879 145.734375 -0.48828125 C147.67763672 -0.46411133 147.67763672 -0.46411133 149.66015625 -0.43945312 C151.02345428 -0.39767939 152.38673552 -0.3553547 153.75 -0.3125 C155.12886624 -0.2874091 156.50777597 -0.26459729 157.88671875 -0.24414062 C161.25891356 -0.18518617 164.62890741 -0.10293171 168 0 C166.64255131 2.91616587 165.08255825 5.34662063 163.09375 7.87109375 C162.52011719 8.60328125 161.94648437 9.33546875 161.35546875 10.08984375 C160.74316406 10.86457031 160.13085938 11.63929688 159.5 12.4375 C158.21846538 14.07139139 156.93721662 15.70550702 155.65625 17.33984375 C155.02847656 18.13890137 154.40070313 18.93795898 153.75390625 19.76123047 C151.48322077 22.65964164 149.23951631 25.57743122 147 28.5 C142.41705283 34.46989171 137.79589513 40.40954493 133.171875 46.34765625 C129.76757571 50.72144077 126.37502406 55.10358707 123 59.5 C118.89360422 64.84786428 114.76364373 70.17705429 110.625 75.5 C110.02945312 76.26634766 109.43390625 77.03269531 108.8203125 77.82226562 C105.90526436 81.568765 102.97802228 85.30314475 100 89 C101.41602311 93.22523025 103.45350012 95.97026632 106.375 99.3125 C110.40726429 104.00939881 114.19329947 108.83654568 117.875 113.8125 C121.86034887 119.18746022 125.92518683 124.47822017 130.125 129.6875 C134.17171876 134.70688767 138.15900511 139.7600494 142.07519531 144.88232422 C145.05359057 148.77633506 148.06056831 152.64700118 151.078125 156.51074219 C156.39566794 163.3223991 161.6759067 170.15987733 166.875 177.0625 C167.39304199 177.74739502 167.91108398 178.43229004 168.44482422 179.13793945 C172 183.88000451 172 183.88000451 172 185 C164.43053916 185.5554261 156.87757668 185.89768716 149.2890625 185.72265625 C147.41275146 185.6918396 147.41275146 185.6918396 145.49853516 185.66040039 C140.94744479 184.8013146 139.31549774 183.38157317 136 180.1875 C134.9962094 178.4790484 133.9970392 176.76517665 133.09960938 174.99853516 C130.90639312 171.01237435 127.99047761 167.4953326 125.25 163.875 C124.04328204 162.22693536 122.83887056 160.57717954 121.63671875 158.92578125 C118.19656083 154.23683038 114.65090809 149.63855731 111.0625 145.0625 C105.26105609 137.66364062 99.59092038 130.17401619 93.97290039 122.63500977 C92.32053122 120.41932781 90.66175093 118.20864946 89 116 C88.23945312 114.98550781 87.47890625 113.97101563 86.6953125 112.92578125 C86.13585938 112.29027344 85.57640625 111.65476562 85 111 C84.34 111 83.68 111 83 111 C81.14697959 113.27569284 79.40757523 115.56376329 77.6875 117.9375 C76.59325777 119.4224721 75.49817906 120.90682812 74.40234375 122.390625 C73.83757324 123.15826172 73.27280273 123.92589844 72.69091797 124.71679688 C70.08351943 128.23750019 67.41854722 131.71304904 64.75 135.1875 C63.65870991 136.61186865 62.56756788 138.03635076 61.4765625 139.4609375 C60.63399902 140.56066895 60.63399902 140.56066895 59.77441406 141.68261719 C57.23024051 145.00530505 54.68803088 148.32942947 52.1550293 151.66064453 C50.79925188 153.4317154 49.43081093 155.19316203 48.05004883 156.94482422 C44.56169058 161.40969233 41.46365535 165.80804967 38.73828125 170.78125 C32.40688222 181.72575589 32.40688222 181.72575589 27 185 C16.85800481 187.35463187 6.24134744 186.24648925 -4 185 C0.05124627 179.57933112 4.13542231 174.18522855 8.25 168.8125 C9.1018689 167.69959595 9.1018689 167.69959595 9.97094727 166.56420898 C11.64669404 164.37567568 13.32319307 162.1877211 15 160 C15.66588135 159.13084961 15.66588135 159.13084961 16.34521484 158.24414062 C21.47127005 151.55603363 26.63378871 144.89734323 31.8125 138.25 C37.56923504 130.85977671 43.27487867 123.43203482 48.95703125 115.984375 C51.77306344 112.29372681 54.60323329 108.61415273 57.4375 104.9375 C60.99487652 100.31813343 64.51646643 95.67526874 68 91 C66.73674614 88.34034633 65.3685394 85.99006361 63.6015625 83.63671875 C62.89205444 82.68937866 62.89205444 82.68937866 62.16821289 81.72290039 C61.65895264 81.05121826 61.14969238 80.37953613 60.625 79.6875 C60.09189209 78.98036865 59.55878418 78.2732373 59.00952148 77.54467773 C54.95346581 72.19201898 50.78557459 66.93697675 46.56835938 61.7109375 C42.28481375 56.39113957 38.13069307 50.97941053 33.99414062 45.54492188 C30.04639404 40.36087031 26.06602567 35.20358764 22.0625 30.0625 C21.49072021 29.32725098 20.91894043 28.59200195 20.32983398 27.83447266 C17.24443587 23.8700622 14.14769784 19.91496875 11.0390625 15.96875 C10.07214478 14.73692993 10.07214478 14.73692993 9.08569336 13.48022461 C7.84518082 11.90018658 6.60133882 10.32275538 5.35375977 8.74829102 C4.79744873 8.03858154 4.2411377 7.32887207 3.66796875 6.59765625 C3.17578857 5.97383057 2.6836084 5.35000488 2.17651367 4.70727539 C1 3 1 3 0 0 Z " fill="currentColor" transform="translate(1602,438)"/>
<path d="M0 0 C0 8.25 0 16.5 0 25 C-2.31 25.0825 -4.62 25.165 -7 25.25 C-25.66885515 26.25515683 -41.02813016 31.8757237 -53.78515625 45.97265625 C-64.21814349 58.96719534 -67.10884699 75.33249387 -67.20532227 91.52514648 C-67.22017166 93.07749748 -67.22017166 93.07749748 -67.23532104 94.66120911 C-67.26677938 98.06448112 -67.29163129 101.46776707 -67.31640625 104.87109375 C-67.33698931 107.23763888 -67.35798614 109.60418044 -67.37937927 111.97071838 C-67.43446025 118.18652451 -67.48393097 124.40236304 -67.53222656 130.6182251 C-67.58254384 136.96621572 -67.63817644 143.31415952 -67.69335938 149.66210938 C-67.80076996 162.10803433 -67.90176122 174.55399926 -68 187 C-76.91 187 -85.82 187 -95 187 C-95 125.95 -95 64.9 -95 2 C-86.42 2 -77.84 2 -69 2 C-68.67 11.9 -68.34 21.8 -68 32 C-65.36 28.37 -62.72 24.74 -60 21 C-43.69805366 4.69805366 -22.35799255 0 0 0 Z " fill="currentColor" transform="translate(1583,436)"/>
<path d="M0 0 C0 8.25 0 16.5 0 25 C-2.31 25.0825 -4.62 25.165 -7 25.25 C-25.66885515 26.25515683 -41.02813016 31.8757237 -53.78515625 45.97265625 C-64.21814349 58.96719534 -67.10884699 75.33249387 -67.20532227 91.52514648 C-67.22017166 93.07749748 -67.22017166 93.07749748 -67.23532104 94.66120911 C-67.26677938 98.06448112 -67.29163129 101.46776707 -67.31640625 104.87109375 C-67.33698931 107.23763888 -67.35798614 109.60418044 -67.37937927 111.97071838 C-67.43446025 118.18652451 -67.48393097 124.40236304 -67.53222656 130.6182251 C-67.58254384 136.96621572 -67.63817644 143.31415952 -67.69335938 149.66210938 C-67.80076996 162.10803433 -67.90176122 174.55399926 -68 187 C-76.91 187 -85.82 187 -95 187 C-95 125.95 -95 64.9 -95 2 C-86.42 2 -77.84 2 -69 2 C-68.67 11.9 -68.34 21.8 -68 32 C-65.36 28.37 -62.72 24.74 -60 21 C-43.69805366 4.69805366 -22.35799255 0 0 0 Z " fill="currentColor" transform="translate(995,436)"/>
<path d="M0 0 C2 1 2 1 2 1 Z " fill="currentColor" transform="translate(673,697)"/>
<path d="M0 0 C2 1 2 1 2 1 Z " fill="currentColor" transform="translate(466,697)"/>
<path d="" fill="currentColor" transform="translate(0,0)"/>
</svg>
